<?xml version="1.0" encoding="UTF-8"?>
<svg width="610px" height="426px" viewBox="0 0 610 426" version="1.1" xmlns="http://www.w3.org/2000/svg" xmlns:xlink="http://www.w3.org/1999/xlink">
    <title>Apulia</title>
    <g id="Page-1" stroke="none" stroke-width="1" fill="none" fill-rule="evenodd" stroke-linejoin="round">
        <g id="Desktop-HD" transform="translate(-95.000000, -583.000000)" fill-rule="nonzero" stroke="#212121" stroke-width="0.5">
            <g id="Apulia" transform="translate(96.000000, 584.000000)">
                <path d="M177.571188,111.750472 L173.96411,109.997381 L171.799655,109.351967 L171.016765,108.93705 L170.6944,108.383839 L169.635194,107.876726 L168.852311,107.093004 L167.332586,106.355388 L165.168124,104.096432 L163.786561,103.543214 L163.049719,102.713394 L162.312885,101.192056 L161.99052,100.362236 L160.79316,99.8551228 L160.14843,98.2876862 L159.36554,97.5500622 L158.720811,95.4294148 L157.155029,92.2484292 L155.819515,89.6206617 L155.31294,87.1312023 L154.806365,86.8545933 L154.29979,83.581412 L153.931376,81.6912685 L153.70111,76.3896282 L154.023481,72.5632362 L155.174786,71.9639203 L155.819515,70.5808824 L158.030025,68.183626 L159.36554,67.630408 L160.79316,66.1551744 L162.451039,65.5558585 L163.556294,65.0948434 L163.510267,64.8182417 L164.431312,64.0806176 L165.90498,63.296903 L168.161547,61.0840453 L169.635216,60.3925264 L171.477306,59.8393157 L171.983881,58.8250898 L172.950982,58.4562778 L173.135192,57.8569619 C173.135192,57.8569619 174.516756,57.580331 174.700966,57.534255 C174.885176,57.4881791 176.220691,56.0590141 176.220691,56.0590141 L179.4904,53.1546449 L179.812765,50.4346743 L180.641712,49.3282455 L182.76011,48.8211326 L183.450895,47.8069068 L185.108782,44.8564323 L186.490345,44.1649134 L188.102175,43.5656048 C188.102175,43.5656048 190.082426,43.1045897 190.312686,43.1045897 C190.542945,43.1045897 190.957415,42.0903639 190.957415,42.0903639 L191.46399,41.122236 L192.200824,40.7995291 L193.167925,39.9236114 L193.90476,39.5087015 L194.273181,36.8348288 L194.595545,36.512122 L196.11527,36.419919 L197.036315,35.6823022 L197.496841,34.1148656 L198.325781,31.5331959 L198.878405,29.5047443 L197.865255,28.3983155 L198.233675,26.6464729 L198.602089,25.8166531 L198.049465,25.0790363 L198.694194,24.3414122 L198.694194,23.4193894 L197.036315,22.9583817 L195.378436,21.4831408 L195.470541,20.745524 L196.391586,20.561118 L196.759999,19.7312982 L194.365286,19.3624935 L193.720549,16.5042147 L193.628444,11.7096947 L190.86531,10.6032659 L189.391641,7.28398671 L188.194281,6.54636263 L187.549551,5.80874585 L186.352191,6.45416692 L185.431146,6.73076865 L183.865365,5.71654284 L182.94432,4.88672304 L181.562757,4.33351228 L178.154886,0.829819792 L174.654917,0.645413771 L173.365451,0 L170.510212,0.553210761 L169.220746,0.922022802 L167.378657,0.368812042 L164.799733,0.368812042 L160.470817,2.12065464 L155.312962,4.05690325 L151.905098,4.33351228 L148.865648,5.53213681 L146.010407,6.36196391 L139.470981,7.00737768 L131.642097,9.22023533 L124.457941,10.7876719 L118.563252,11.433093 L115.339599,12.0785067 L112.023833,11.6174917 L111.102788,10.4188672 L107.971233,10.0500551 L106.497564,9.49683706 L103.91863,9.8656491 L101.431811,10.7876719 L95.076603,11.9863037 L91.1161009,13.8303493 L87.8924405,14.2913644 L84.3003738,15.951004 L81.2609238,16.7808238 L75.8267529,17.3340418 L72.1425737,18.1638616 L67.1689216,18.5326664 L63.4847425,18.1638616 L61.9189758,17.4262375 L60.261082,15.4899889 L55.7479633,15.3977932 L45.8927862,15.766598 L38.7086236,16.227613 L27.5639736,16.13541 L27.0605643,15.7044575 L26.8651936,16.5846103 L26.6046702,19.3880798 L27.0931407,22.6479203 L27.7118438,23.3324877 L28.167738,24.6690261 L28.4282468,25.2232007 L28.2002997,26.0381608 L27.3536496,26.8205246 L26.6372466,28.2222557 L25.9534053,30.6345397 L25.2369877,31.9058853 L23.5436728,32.4600527 L23.0877786,35.459115 L22.5016227,35.8176968 L22.794708,36.2414787 L23.7716199,37.7736026 L25.2044259,39.27313 L25.8882672,42.7937633 L26.3441613,44.0651017 L26.0185289,45.7928183 L24.3903375,46.5099893 L23.8367434,47.9117204 L23.3157257,49.4764479 L23.7390581,50.9433718 L25.1393023,52.3451102 L26.246476,52.8992848 L27.3536496,53.5186522 L27.0931407,54.3988123 L25.9859671,53.9750304 L24.8136699,54.3662086 L24.8136699,55.5723543 L25.2369877,55.9961362 L26.6698083,57.3978673 L26.962879,58.2128274 L27.7444056,58.8973948 L27.9072291,59.8753513 L30.2518235,60.2991259 L31.1961881,61.1466897 L34.2571855,61.3748788 L34.4200091,62.1246389 L33.377959,62.5484208 L31.5543824,63.4611773 C31.5543824,63.4611773 31.0659264,64.1131483 30.9031029,64.178341 C30.740294,64.2435483 29.5354204,64.7325156 29.5354204,64.7325156 L28.2979997,65.1237012 L27.9397909,65.5800794 C27.9397909,65.5800794 26.9954408,65.8734612 27.1582643,65.8734612 C27.3210878,65.8734612 26.8651936,67.1447996 26.8651936,67.1447996 L26.0510907,67.7315779 L25.3998112,68.0901598 L25.8231436,68.6443344 L26.246476,69.068109 L26.2139142,70.2090546 L24.5531611,70.2090546 L24.1623905,68.6769308 L23.5762346,68.8725235 L23.4785492,69.9808655 L23.1854786,71.3174039 L22.306252,72.0345676 L20.7431843,72.784335 L18.528837,73.436306 L18.1055047,73.8600806 L17.5519251,74.2838625 L17.3891016,75.5226045 L16.9657693,76.2723646 L17.0309074,77.4133102 L17.3891016,78.0326849 L17.1611546,78.5542558 L15.2724543,78.1630776 L14.2304043,78.8150486 L14.0350336,79.9233906 L14.2304043,81.3577254 L14.9468219,82.2052818 L14.4257896,82.2704892 L10.583251,81.6837182 L9.34583027,80.9339508 L8.27121844,80.4775725 L8.10840952,79.5322197 L7.48969185,78.1630849 L6.57790353,78.2282922 L6.15457115,78.8476596 L5.24278284,78.2282922 L4.07048565,77.8697031 L3.35408263,77.2177394 L2.83305031,77.4459285 L2.53997966,78.7824596 L1.92126199,80.770969 L0.390770591,82.2379001 L0,83.1506566 L0.260508864,84.2264022 L1.56306777,84.8783732 L2.50741788,85.5629406 L2.2794708,86.2801043 L1.75845307,86.4431007 L1.43280605,87.6818354 L2.14920907,87.7470428 L2.50741788,88.790192 L3.12613555,89.4095667 L2.53997966,89.7029485 L1.98640015,90.4201122 L2.60510323,92.5390144 L2.96331204,93.1257854 L2.6376796,94.0711382 L2.01896193,96.0596476 L1.40024426,97.4287824 L1.36768248,100.851619 L1.49794421,102.742325 L1.72589129,103.883271 L3.28895906,104.144063 L6.57790353,104.698238 L6.80585061,105.219809 L7.42456828,105.415402 L8.10840952,106.588944 L8.75967439,107.273489 L9.18300676,107.92546 L11.299654,108.577431 L12.6347747,109.587977 L13.2534924,110.66373 L13.4814395,110.826719 L14.360666,111.54389 L15.2073162,112.326246 L16.1516809,112.652232 L16.5098751,113.662785 L17.2588399,115.879483 L17.6496105,117.639796 L18.3660135,117.965782 L19.017293,117.379011 L19.7662578,117.216014 L20.2221519,119.563106 L23.2831639,119.986887 L23.8041817,120.93224 L28.8515792,121.584211 L29.6656822,123.018539 L30.2192617,123.60531 L29.7308057,123.996495 L27.776982,124.615863 L27.5490349,126.147994 L26.8000555,126.93035 L27.4187731,127.908307 L28.1026144,128.821063 L28.9818409,129.212242 L29.0469645,130.320591 L26.7349319,131.168155 L26.1162142,132.602482 L24.4554611,134.232402 L23.5436728,134.525791 L23.3808493,135.666737 L23.8041817,136.318708 L24.5205847,138.567996 L25.1393023,141.958236 L25.8557054,142.936193 L27.353635,143.653356 L27.8095291,143.914142 L29.0795263,143.751153 L29.5354204,143.425167 L30.1215763,143.55556 L30.9682265,144.011938 L32.3033472,144.924695 L35.8853769,145.576666 L35.9830622,147.304382 L35.2015356,147.728164 L35.0061503,148.999503 L36.4389564,149.325488 L37.1879358,149.912259 L37.3833065,151.509583 L38.4904801,152.585329 L39.076636,153.041707 L39.4022684,153.367692 L39.9558625,153.139503 L42.0725098,152.259343 L43.8309629,152.031154 L44.7427512,151.672572 L44.8078748,151.31399 L47.2501691,151.248783 L47.7060632,152.096339 L46.6314514,152.650514 L46.9570984,153.237285 L48.1293956,153.367678 L50.2134811,153.661067 L50.8321988,154.54122 L50.9624459,155.453976 L51.7765489,155.845162 L52.1673195,155.290987 L52.8185844,154.345634 L55.0329316,154.247838 L55.9447199,154.60642 L57.1170171,154.93242 L57.1821552,155.877773 L58.1590671,156.855729 L59.6570113,158.25746 L60.0477673,159.07242 L60.4059761,159.659191 L60.5362233,160.082973 L59.6569968,160.408959 L55.7493346,161.191323 L55.2934405,162.104079 L55.8144728,164.809745 L56.6611229,166.374472 L58.1916289,167.711011 L58.4846996,168.493375 L58.2893143,169.275738 L56.7913847,169.927702 L55.8144728,170.710066 L54.4467903,171.362037 L52.9814079,172.894161 L52.2975666,174.88267 L50.7670606,176.479994 L50.1483576,177.686132 L50.4414282,179.544249 L51.6462872,180.913384 L52.7534608,181.597951 L56.0424198,182.347711 L56.6285611,183.847239 L57.3449642,184.629602 L57.9636818,186.063937 L58.8429084,186.748505 L59.9175202,187.433072 L60.4059761,189.030396 L61.7085205,189.617167 L63.1413411,190.432127 L64.4438854,190.888505 L64.9649177,191.475276 L65.7790061,191.540483 L66.0069532,191.018905 L67.570021,190.334338 L68.0259151,189.323785 L69.3610358,189.421581 L70.533333,190.334338 L74.8968893,191.084105 L75.9715011,191.63828 L76.4599571,192.062054 L78.6091807,191.899065 L80.009425,190.399538 L80.725828,188.867407 L81.3119693,188.01985 L81.8981252,186.878905 L82.7773518,187.400476 L83.8845254,188.280636 L84.6334902,189.291189 L85.6104021,189.812767 L87.1409081,190.203945 L89.3200675,192.518477 L91.6687321,192.887281 L94.3858176,192.518477 L94.6160842,192.195762 L95.8134301,192.241838 L95.8134301,193.209959 L97.3331551,193.85538 L100.418661,195.468922 L102.629172,196.06823 L104.056799,196.759749 L105.760724,196.344839 L105.62257,193.993681 L105.069946,193.486568 L105.023919,192.887252 L106.037069,192.887252 L106.681798,192.10353 L107.787053,191.412018 L108.063369,189.245259 L109.122568,188.922552 L109.767304,188.507642 L110.504139,187.816123 L111.287029,187.493416 L116.536982,186.755799 L117.504083,186.386987 L119.208019,186.709694 L120.267218,187.493416 L124.365874,188.13883 L125.102709,188.369341 L126.115859,188.599845 L126.254013,187.862228 L127.175057,187.954431 L127.313219,188.369341 L128.280313,188.507642 L128.971098,188.277138 L131.503973,187.355115 L133.852638,186.755799 L134.773682,186.386987 L135.464468,185.326664 L137.721027,184.819551 L139.609173,185.050055 L141.359158,186.571393 L141.497312,187.585619 L142.095992,188.000529 L142.740721,187.539521 L143.569668,186.617491 L146.378851,185.92598 L147.069637,183.667017 L147.622261,181.315858 L148.174892,181.039256 L148.359102,180.117234 L149.970933,179.425715 L150.707767,178.641993 L151.260391,177.397263 L151.766966,176.89015 L152.549856,176.982353 L153.010383,177.535564 L154.207736,177.212857 L156.326141,176.936248 L157.016926,176.014225 L157.920698,174.516866 L157.8843,174.367729 L158.102895,173.91693 L158.291986,173.637196 L158.409315,173.50773 L160.067135,171.713046 L162.667475,169.101073 L163.617107,168.970593 L164.649827,167.392751 L164.89407,166.652549 L166.176941,164.806474 L166.378082,164.690188 L166.460026,164.651707 L166.579748,164.608259 L167.008434,164.528477 L167.13224,164.511463 L168.206115,164.366605 L169.945166,164.301836 L176.337706,161.092241 L178.669893,158.074865 L179.555254,157.251325 L179.595883,157.181518 L180.047065,156.310397 L180.54577,155.318757 L180.481069,154.594977 L180.262933,153.514025 L179.83068,153.402888 L179.80814,153.397047 L179.734723,153.378864 L179.716633,151.461017 L179.726116,151.397051 L179.759086,151.319642 L179.820869,151.242058 L179.899502,151.159727 L180.013482,151.055395 L180.188422,150.921235 L180.281745,150.805475 L180.369437,150.678266 L181.073644,149.387337 L181.169345,149.166537 L181.30227,148.86061 L181.977066,146.975892 L182.087166,146.668527 L182.501337,145.51067 L182.505713,145.497161 L182.81613,144.63032 L181.77478,144.973348 L181.299906,145.148138 L180.290345,146.108299 L180.250153,146.13225 L180.155254,146.150213 L177.903859,146.296707 L177.743202,144.487251 L176.700649,143.079006 L176.491711,142.796921 L176.482885,142.784215 L176.167457,142.358126 L176.164539,142.353744 L174.445184,139.546587 L174.111469,138.932726 L173.761583,137.965116 L173.088669,138.007176 L173.012575,137.351189 L172.419708,131.776686 L172.182074,129.371514 L172.179886,129.348878 L172.062061,128.155605 L171.860935,126.120779 L172.383645,126.199634 L173.442295,125.965676 L175.677796,124.753594 L178.315461,123.3241 L178.350328,123.305261 L179.509438,122.677387 L180.00888,122.407065 L180.109103,122.297972 L180.62147,121.180401 L180.605714,121.01812 L180.580184,120.875832 L180.544223,120.725965 L180.462337,120.551278 L180.361472,120.458856 L179.738866,120.083815 L179.58581,120.018242 L179.448684,119.962163 L179.02897,120.135017 L178.844789,120.202342 L178.688887,120.178683 L178.471101,120.128518 L178.290319,120.080178 L177.997088,119.996782 L177.817612,119.916036 L175.310354,118.401218 L172.605406,117.017194 L171.230714,116.194545 L169.562864,114.945872 L165.388361,113.645574 L163.453692,113.104207 L163.44049,113.100556 L163.503877,112.921772 L165.066296,109.905134 L165.344311,109.371245 L168.62699,109.526946 L168.96686,109.555643 L169.530111,109.630562 L169.758103,109.660428 L170.052193,109.700735 L170.170631,109.732864 L171.518779,110.09896 L172.103463,110.339117 L172.165682,110.454599 L172.341993,110.707192 L172.402463,110.772034 L173.065508,111.028263 L173.254015,111.101349 L174.678761,111.59453 L174.684596,111.59599 L175.46319,111.815059 L176.430321,112.146207 L176.830902,112.294307 L176.998022,112.368394 L177.661899,112.681177 L177.571216,111.750472 L177.571188,111.750472 Z" id="path3910-path"></path>
                <path d="M302.182933,253.481603 L301.157171,252.848376 L299.766694,251.593336 L297.760759,250.817493 L295.709236,249.379901 L294.843037,248.695334 L293.429765,246.915459 L292.63195,246.413443 L292.29003,247.417475 L291.948109,248.809429 L291.948109,249.608091 L290.512042,249.653728 L290.261301,248.124861 L289.509075,246.824183 L288.734055,246.25371 L288.437724,245.158403 L287.867856,245.318135 L287.229604,246.002702 L285.884717,246.299348 L285.337644,246.778545 L283.67363,247.508751 L282.351537,247.417475 L281.827259,246.801364 L280.710318,245.500686 L280.368397,244.496654 L278.932331,244.473872 L277.610238,245.363809 L277.108754,246.253747 L277.359496,247.371874 L278.020542,247.759795 L278.749973,248.71819 L279.091894,249.813497 L278.955125,250.38397 L277.974953,250.840348 L276.812423,250.863131 C276.812423,250.863131 275.991813,250.338296 275.969019,250.201382 C275.94626,250.064469 275.809456,249.106075 275.809456,248.99198 C275.809456,248.877885 275.923429,248.512783 275.923429,248.512783 L275.969019,247.714121 L275.87784,246.89264 L275.535919,246.436262 L274.601336,246.025521 L273.849111,246.459081 L272.77776,247.326199 L272.276276,248.033586 L271.820382,248.695334 L271.911561,249.448358 L272.504223,249.996012 L272.868938,250.543666 L273.16527,251.251052 L273.484395,252.391998 L274.122647,252.894014 L274.555747,253.875227 L274.305005,254.468519 L273.11968,254.491301 L272.139508,253.304718 L271.159335,252.574513 L270.293136,251.456423 L270.110779,250.132926 L269.814447,249.493996 L268.537944,248.626877 L267.329824,247.73694 L266.942314,246.778545 L266.554804,246.093978 L265.7114,246.618813 L265.004764,247.94231 L264.685638,249.699366 L263.705466,250.475209 L263.158393,251.753068 L262.155426,253.281936 L261.653942,254.263149 L260.787743,254.993354 L259.693597,255.723559 L259.055345,256.864505 L257.550895,257.80008 L257.072206,258.393372 L256.046444,259.237672 L254.975092,259.808144 L254.405225,260.515531 L253.379463,260.857814 L252.604443,260.561169 L251.350734,259.69405 L250.735277,258.963845 L250.165409,257.617529 L249.618336,256.659135 L248.683753,255.723559 L248.546985,254.559795 L247.863143,253.943684 L246.837382,253.510125 L246.290309,253.145022 L245.127778,252.711463 L243.805685,251.981257 L242.415208,251.342328 L241.138705,250.110107 L239.884996,248.855066 L238.448929,247.257743 L237.035657,246.208073 L235.052518,244.222827 L233.411299,243.33289 L232.590689,241.963755 L230.56196,241.302006 L229.01192,240.685896 L228.647205,239.33958 L227.872184,238.152997 L226.914807,237.719437 L225.934635,237.126145 L224.931667,235.597278 L224.680926,234.93553 C224.680926,234.93553 223.580842,234.055618 223.451901,233.958807 C223.322952,233.861997 221.84007,232.732515 221.84007,232.732515 L221.388757,231.958016 L220.90521,231.409413 C220.90521,231.409413 220.421663,230.538103 220.389423,230.409017 C220.357182,230.279931 219.938109,229.69906 219.938109,229.69906 L219.680219,228.601854 L219.647978,226.342891 L219.357854,225.955642 L219.164431,225.503856 L219.744693,225.310228 L219.583511,224.729357 L219.132198,223.922582 L218.197338,223.632143 L218.197338,222.986729 L217.713783,221.405463 L217.101295,220.469603 L216.424325,219.662835 L215.844063,219.017422 L215.263808,218.533354 L214.734307,217.670529 L215.398089,216.21201 L215.605189,215.636228 L215.913643,214.81301 L215.986003,214.640177 L216.058144,214.470266 L216.155253,214.291665 L218.257151,210.99243 L218.358483,210.851157 L219.258163,209.626041 L219.345629,209.533502 L219.42812,209.457422 L219.448034,209.438948 L219.56885,209.327248 L221.387802,207.710107 L221.709998,207.435199 L222.175871,207.10684 L222.231235,206.353539 L222.908912,202.338878 L223.267552,200.368222 L223.743279,197.751415 L221.591079,195.913605 L222.063079,194.947974 L222.142762,194.858203 L222.81769,194.246547 L222.978909,194.161558 L223.172638,194.04712 L223.328561,193.924022 L223.44573,193.812403 L223.475053,193.683493 L223.531365,193.072391 L223.54092,192.90635 L223.503282,192.752591 L223.435736,192.720973 L223.152652,192.450636 L222.761101,192.031243 L222.72813,191.885136 L222.980222,190.995403 L223.091934,190.699494 L224.209108,188.474442 L226.077618,185.287717 L226.370105,184.858291 L227.020669,183.905906 L227.707683,182.83628 L227.772821,182.721754 L228.150287,180.998791 L229.676293,179.175761 L229.926035,178.643259 L229.993362,178.196512 L230.343109,177.128485 L230.409998,176.924911 L230.428598,176.867955 L230.722136,175.976345 L230.809011,175.712259 L230.874733,175.55479 L230.982871,175.469882 L231.59948,174.945551 L233.858082,172.324976 L234.114039,172.02373 L234.320009,171.71938 L234.402763,171.59158 L234.432888,171.544847 L234.505685,171.398922 L234.581933,171.222403 L234.631826,171.04876 L235.12576,169.153395 L235.118465,169.146093 L234.753451,168.781867 L234.230274,168.288431 L233.409796,167.630377 L232.595168,165.788581 L232.678841,165.686556 L232.875116,165.299234 L233.057262,164.894715 L233.14122,164.690483 L233.038034,163.818699 L233.00324,163.673512 L232.683093,162.562293 L234.714302,163.172117 L235.618227,163.438006 L235.66316,163.111575 L235.727569,162.787934 L235.8983,162.014997 L235.933093,161.903341 L236.059985,161.646711 L236.524319,161.055179 L239.028221,158.788877 L239.59795,156.600934 L239.758228,156.097962 L239.861515,155.933344 L240.43282,155.586482 L240.959717,155.729157 L241.348051,155.902676 L241.570338,156.809203 L241.585218,156.880764 L241.996894,157.089997 L245.072561,157.214029 L246.284918,156.69091 L246.34371,156.650019 L246.401627,156.595691 L246.443934,156.539466 L246.492441,156.430789 L246.498277,156.323318 L246.582409,156.341062 L247.632096,156.635809 L247.744224,156.672392 L247.827737,156.742273 L247.884559,156.816863 L248.136694,157.515319 L248.098618,157.605857 L248.035668,157.758529 L248.008023,157.832929 L249.607672,159.20497 L250.53604,159.392604 L250.90263,159.431743 L251.843223,160.143613 L252.638157,161.760966 L252.998678,163.023001 L253.436263,163.830893 L253.972818,164.736384 L254.049685,164.705131 L254.152645,164.612855 L254.204434,164.525187 L254.493865,163.876933 L255.79064,163.385446 L256.907515,163.548318 L258.845787,163.698602 L258.91884,163.700062 L259.219402,163.593197 L259.757999,161.831942 L259.75654,161.831212 L259.825033,161.614786 L260.657263,158.818955 L260.245397,158.341298 L260.211187,158.287628 L260.184343,158.173964 L259.911186,156.561781 L260.632717,154.996097 L261.703171,153.150912 L262.615893,151.801705 L262.96122,151.294197 L263.615636,150.100706 L263.642625,150.042509 L263.709076,149.827032 L263.747736,149.361271 L263.762325,149.112351 L263.757219,149.041595 L263.755031,149.024727 L263.747736,148.980549 L263.731981,148.871661 L263.71535,148.765628 L263.674939,148.649007 L263.62687,148.560083 L263.569828,148.504587 L263.548456,148.450114 L263.550644,148.355552 L263.566764,148.163786 L263.574788,148.12377 L263.577706,148.109166 L263.582083,148.084704 L264.117302,146.017238 L266.896754,146.60352 L268.127668,147.288087 L268.925483,147.972654 L269.563735,149.045143 L271.204954,149.615616 L274.008703,149.9579 L275.080054,150.825019 L276.333763,151.327035 L277.268346,151.737775 L280.983884,151.988783 L285.223699,152.308248 C285.223699,152.308248 285.861988,153.038453 285.884746,153.129729 C285.907504,153.221004 287.913475,154.133761 288.027448,154.225037 C288.141422,154.316312 289.144389,154.727089 289.235568,154.749871 C289.326747,154.772654 292.745953,155.160612 292.745953,155.160612 L293.498178,155.548533 L295.618086,156.027731 L297.418868,156.347195 L299.493186,156.780755 L301.727068,156.940487 L302.75283,157.191495 L303.824181,157.602236 C303.824181,157.602236 304.166138,158.378079 304.188896,158.469354 C304.211655,158.56063 305.4654,159.131103 305.4654,159.131103 L306.126446,159.564662 L307.904434,160.135135 L308.793427,160.65997 L310.571415,161.184805 L311.779534,161.184805 L312.828091,161.162022 L313.306779,160.523093 L314.059005,160.545875 L314.651667,161.321718 L315.540661,161.641183 L315.859787,162.371388 L316.725986,162.668034 L317.478211,162.55394 L318.093668,161.800915 L318.481178,161.207624 L318.549526,160.408962 L317.500969,159.906946 L315.791366,159.6103 L315.996519,159.176741 L316.839923,159.222378 L318.344373,159.313654 L319.301751,160.066678 L319.301751,161.321718 L319.39293,162.622396 L319.598082,163.535153 L320.965765,163.991531 L322.219474,164.333815 L324.202613,164.881469 L325.957806,165.337847 C325.957806,165.337847 327.530641,165.771443 327.62182,165.794225 C327.712998,165.817008 329.240244,166.341879 329.240244,166.341879 L331.041026,167.072084 L333.388881,167.756652 L334.870537,167.893565 L336.53455,168.190211 L337.674286,168.897597 L339.133147,169.308338 L341.27585,169.901629 L343.874446,169.901629 L347.293653,170.198275 L349.162819,170.951299 C349.162819,170.951299 350.781243,171.453315 350.826832,171.56741 C350.872422,171.681505 352.695998,172.069426 352.695998,172.069426 L353.881323,172.868088 L355.818873,173.643931 L357.323324,174.351317 L358.736596,175.76609 L360.423404,176.633209 L362.133007,177.500327 L363.956584,178.207714 L366.099287,179.257383 L368.014042,179.713762 L370.339102,180.17014 L372.800931,182.178204 L374.031845,183.227874 L374.647302,184.848017 L376.128958,185.053387 L377.451051,185.372852 L379.593754,185.82923 C379.593754,185.82923 381.326152,186.833262 381.371741,186.947357 C381.41733,187.061452 383.446059,188.407767 383.446059,188.407767 L385.201252,189.571532 L387.047623,189.845359 L388.255747,191.191675 L390.375648,192.743361 L392.746297,194.568874 L395.071358,196.280292 L396.302272,197.3756 L397.624365,198.927286 L398.900869,200.798437 L399.698691,202.395761 L401.271518,203.87899 C401.271518,203.87899 403.550989,204.38097 403.642168,204.358187 C403.733347,204.335405 406.121444,205.019899 406.11415,205.043704 L405.445831,205.956957 L403.972162,207.155589 C403.972162,207.155589 403.143223,207.893205 402.72876,208.331168 C402.314283,208.76913 400.932712,209.898605 400.932712,209.898605 L399.1597,211.304695 L398.745237,211.857906 L399.297854,212.480274 L399.366931,213.310094 L398.307725,214.600929 L397.616939,215.661253 L396.396558,217.620554 L395.567618,219.234095 L394.209083,220.317472 L393.93276,221.377795 L393.195933,222.18457 L393.011723,223.08354 L394.715658,223.682856 L396.649846,224.259119 L399.113643,224.766232 L399.884302,224.82348 L401.382231,225.279859 L402.163772,226.518601 L403.075561,227.366164 L404.508367,228.344114 L405.420155,228.735299 L406.136558,228.083328 L408.806799,227.887735 L410.760623,228.278921 L411.672412,228.604906 L411.021132,229.713248 L409.718588,230.886798 L409.197555,232.451518 L409.65345,233.559867 L411.08627,234.668216 L410.304729,235.972151 L407.829873,236.102544 L406.852961,236.102544 L405.159646,236.624122 L403.922211,236.884908 L403.531455,237.993257 L403.010423,238.775621 L402.329484,239.176416 L400.462988,238.525124 L399.914952,237.621546 L398.061352,237.847442 L397.078138,238.73489 L395.998216,238.702615 L395.12783,236.572745 L394.031788,235.152824 L392.746297,233.840222 L393.065423,232.973103 L394.250748,232.653639 L394.296338,231.740882 L390.785953,231.649606 L391.606562,230.32611 L394.752232,230.234834 L396.849345,229.824093 C396.849345,229.824093 396.074325,227.816029 396.028735,227.58784 C395.983146,227.359651 394.022801,225.899241 394.022801,225.899241 L393.794854,226.583808 L395.390484,228.044218 L393.794854,228.820061 L392.472761,227.405289 L389.372681,227.085824 L385.543173,227.085824 L385.588762,229.139526 L387.32116,233.429482 L386.454961,234.889892 L383.947543,236.532854 L380.026853,236.897956 L379.251833,235.757011 L377.473846,236.943594 L374.05464,239.408037 L372.45901,240.503345 L372.048705,244.200008 L371.592811,245.386592 L372.595778,246.25371 L372.641368,247.212105 L371.866348,248.033586 L370.179539,248.809429 L369.35893,249.265807 L367.079459,249.265807 L366.441207,248.58124 L366.030903,247.394656 L364.708809,247.212105 L363.569074,248.307413 L362.657286,248.489964 L361.471961,248.535602 L361.289603,246.847002 L358.918954,246.755727 L356.730662,247.029553 L355.226211,247.577207 L353.812939,248.444326 L353.174687,248.900704 L351.624647,249.037618 L350.576091,248.444326 L349.573123,247.394656 L347.339242,245.888608 L347.384831,245.20404 L348.843693,244.245646 L349.937839,242.511409 L350.62168,241.735566 L350.667269,239.681864 L349.709892,239.088572 L348.29662,239.727502 L347.020116,240.914085 L344.467109,242.191944 L343.372963,243.469803 L342.05087,244.063095 L336.762498,244.108733 L334.756563,245.43223 L334.437437,247.622845 L335.212457,248.672515 L335.850709,250.315477 L336.53455,250.543666 L336.53455,251.456423 L335.212457,251.593336 L334.300669,252.186628 L333.844775,252.779919 L332.477092,252.779919 L331.656483,252.277903 L331.10941,251.273871 L329.969675,250.908769 L328.556403,250.817493 L327.918151,251.410785 L327.371078,252.186628 L326.596058,252.232266 L326.185753,251.593336 L326.185753,250.132926 L325.63868,249.265807 L323.587156,249.265807 L322.219474,250.863131 L321.490043,252.14099 L320.304718,252.962471 L319.484109,253.510125 L318.937036,255.472551 L319.347341,256.476583 L318.800268,256.887324 L317.934069,257.434978 L317.159049,257.161151 L316.064903,256.522221 L315.563419,255.153086 L314.74281,253.6014 L314.150147,252.734282 L313.831021,250.498028 L313.557485,248.626877 L312.007445,247.896672 L311.460372,248.946342 L310.138279,250.132926 L308.542649,250.589304 L307.72204,251.410785 L306.719072,252.779919 L305.35139,253.327573 L303.892529,253.555762 L302.182933,253.481603 L302.182933,253.481603 Z" id="path3960"></path>
                <polygon id="path858" points="215.042958 217.243359 213.679011 216.93354 211.931762 216.472116 211.443123 216.329149 211.229517 216.259634 210.595467 215.981155 210.443023 215.88 210.299267 215.771207 210.061341 215.626232 209.869056 215.58534 208.517581 215.426769 205.963363 216.630235 204.706722 217.930146 204.590917 218.08208 204.495231 218.272269 204.278356 218.945767 204.263549 219.22645 204.304835 219.48709 204.401192 220.256719 204.373766 220.332215 204.339993 220.421059 204.313661 220.484075 204.209082 220.603559 203.104527 221.470882 202.701284 221.615616 202.618427 221.694062 202.529262 221.811596 202.472512 221.929093 202.356613 222.210974 202.346984 222.536587 201.501968 221.653389 198.994383 219.269437 198.353249 218.710735 197.551678 218.117977 197.406813 218.05036 197.278798 217.994207 195.883135 217.512257 195.319431 217.366077 194.961893 217.298971 194.23139 217.225754 193.005254 217.001581 191.844139 216.749791 191.669163 216.664219 191.611392 216.573542 191.555226 216.381782 191.479212 216.281598 191.404306 216.221575 191.005454 215.948289 190.357552 215.594322 189.575398 215.201493 188.287347 214.73241 186.286665 214.073202 185.643373 214.00208 185.280809 213.966665 185.091989 213.948994 184.056722 213.482583 182.816238 213.070156 182.682074 213.038976 181.496552 212.888284 179.205957 212.333934 179.051792 212.248405 178.226777 211.670966 178.211897 211.657749 178.122607 211.578617 178.123045 211.578529 177.109566 208.740003 177.242228 208.795863 177.381885 208.848949 177.631066 208.931346 177.746739 208.950258 177.763224 208.953179 178.615739 209.038605 179.057657 209.040066 180.599783 208.908059 181.165135 208.842925 182.118946 208.733044 182.966916 208.260039 182.997261 208.221776 185.098203 204.914049 185.401639 204.383189 185.623992 203.952018 186.290093 202.364106 186.283528 202.311605 186.052948 200.850844 185.749782 200.236442 185.617018 200.096301 185.537481 200.00198 185.447003 199.888535 185.408853 199.783517 185.351593 199.622266 185.291999 199.242245 185.203256 198.358128 185.180279 197.096457 185.186114 196.964684 185.256359 196.819315 185.460337 196.481719 185.569357 196.372561 185.946043 196.168323 187.119478 195.888157 187.072283 194.498051 187.027934 194.265977 187.005249 194.212599 186.989712 194.187845 186.658441 193.813214 186.570377 193.720726 186.537188 193.687355 183.758969 191.286777 181.316164 189.842789 181.25212 189.806643 181.190191 189.878423 181.01202 190.152914 180.553763 190.745278 180.413792 190.882309 180.115433 191.096967 180.066051 191.066518 180.033372 191.038916 179.997557 191.004596 176.927362 186.253399 176.511506 185.397796 176.695505 185.234916 176.815803 185.118127 177.044596 184.428806 176.846001 183.829512 176.769404 183.750438 175.916823 182.948644 175.811493 182.873418 175.664601 182.780258 173.130398 183.178337 172.138562 183.297967 172.595842 182.636496 172.74698 182.388671 172.834402 182.219366 172.914749 182.001261 172.948303 181.748982 172.932693 181.642088 172.883894 181.498098 172.64362 180.990635 172.510674 180.769412 171.704675 179.55411 169.117166 179.178667 168.289116 180.235369 166.502944 179.915831 166.23431 179.733331 165.519738 179.125494 164.698785 178.377559 164.624996 178.314835 164.602238 178.295484 163.992879 177.780281 162.998541 176.947065 162.861948 177.103329 162.768879 177.222185 162.661908 177.337192 162.522697 177.481948 161.955812 177.796462 161.897604 177.816689 161.80873 177.755936 161.70402 177.63597 161.611769 177.529346 160.786652 176.462625 160.045069 175.490109 159.933378 175.355912 159.321058 174.65241 159.177411 174.71309 159.142982 174.792522 159.097611 174.855831 158.987095 174.947953 158.856345 175.024939 158.732145 175.086568 158.670289 175.080727 157.86604 174.487939 157.884276 174.367732 158.102872 173.916933 158.291962 173.637199 158.409291 173.507733 160.067112 171.713049 162.667452 169.101076 163.617083 168.970596 164.649804 167.392754 164.894046 166.652552 166.176918 164.806477 166.378059 164.690191 166.460003 164.65171 166.579724 164.608262 167.008411 164.52848 167.132217 164.511466 168.206092 164.366608 169.945142 164.301839 176.337683 161.092244 178.66987 158.074868 179.555231 157.251328 179.59586 157.181521 180.047042 156.3104 180.545746 155.31876 180.481046 154.59498 180.26291 153.514028 179.830656 153.402891 179.808117 153.39705 179.7347 153.378867 179.71661 151.46102 179.726092 151.397054 179.759063 151.319645 179.820846 151.242061 179.899478 151.15973 180.013459 151.055398 180.188398 150.921238 180.281722 150.805478 180.369414 150.678269 181.073621 149.387339 181.169322 149.16654 181.302246 148.860613 181.977043 146.975895 182.087143 146.66853 182.501314 145.510673 182.50569 145.497164 182.816107 144.630323 181.774757 144.973351 181.299883 145.14814 180.290322 146.108302 180.25013 146.132253 180.155231 146.150216 177.903836 146.296709 177.743179 144.487254 176.700626 143.079009 176.491688 142.796924 176.482861 142.784218 176.167434 142.358129 176.164516 142.353747 174.44516 139.54659 174.111446 138.932729 173.76156 137.965119 173.088646 138.007179 173.012551 137.351192 172.419685 131.776689 172.182051 129.371517 172.179862 129.34888 172.062038 128.155608 171.860912 126.120782 172.383622 126.199637 173.442274 125.965679 175.677774 124.753597 178.315439 123.324103 178.350306 123.305264 179.509415 122.67739 180.008856 122.407068 180.10908 122.297975 180.621447 121.180403 180.605691 121.018123 180.580161 120.875835 180.5442 120.725968 180.462314 120.551281 180.361448 120.458858 179.738843 120.083818 179.585787 120.018245 179.448661 119.962166 179.028946 120.13502 178.844765 120.202345 178.688864 120.178686 178.471078 120.128521 178.290296 120.080181 177.997065 119.996785 177.817588 119.916039 175.310331 118.401221 172.605383 117.017197 171.230691 116.194548 169.56284 114.945875 165.388338 113.645577 163.453669 113.10421 163.440466 113.100559 163.503854 112.921775 165.066272 109.905137 165.344288 109.371248 168.626966 109.526949 168.966837 109.555646 169.530089 109.630565 169.75808 109.660431 170.052172 109.700738 170.170609 109.732867 171.518758 110.098963 172.10344 110.33912 172.16566 110.454602 172.341971 110.707194 172.402441 110.772037 173.065486 111.028266 173.253993 111.101352 174.678739 111.594532 174.684574 111.595993 175.463168 111.815062 176.430299 112.14621 176.83088 112.29431 176.998 112.368397 177.661877 112.68118 177.583908 111.758646 177.681447 111.800414 177.855971 111.873989 178.882965 112.259662 179.879528 112.541879 180.027807 112.489961 180.313612 112.469442 180.57383 112.55871 181.398079 112.880957 185.288913 114.529716 190.842747 116.697506 195.466112 118.818146 199.121041 120.557334 199.428554 120.72669 199.543702 120.790218 199.820871 120.941276 200.196667 121.146135 200.39497 121.23779 201.644929 121.794718 203.269911 122.326599 205.075121 122.88 206.162804 123.205883 206.44877 123.282314 206.818124 123.36682 207.209559 123.389822 207.807882 123.359153 207.967109 123.398584 208.107554 123.533409 208.463676 123.761073 208.826203 123.946998 208.89032 123.870779 208.896885 123.843615 208.914902 123.837774 209.075763 123.890129 209.38963 124.123795 209.430551 124.159356 209.475265 124.201343 209.517499 124.255232 209.550397 124.319709 209.628628 124.434505 209.643217 124.450788 209.781458 124.553696 210.484994 125.047899 210.602134 125.047169 211.640011 125.824355 212.599096 126.550851 212.619301 126.565966 212.948435 126.806379 214.150281 127.594314 214.521022 127.826461 215.090284 128.146561 216.425937 128.807433 217.25627 129.181642 218.078309 129.501391 218.923376 129.755364 219.156583 129.80363 219.396237 129.853284 219.467284 129.868107 219.746583 129.926013 220.088518 129.927473 220.445589 129.928934 220.766691 129.812108 220.837081 129.776474 220.976184 129.674391 221.010467 129.648688 220.823098 129.134821 221.203299 128.853502 221.369464 128.442842 221.716614 127.937182 221.745937 127.962739 221.764611 128.369909 221.625311 128.568386 221.135477 129.023435 221.05807 129.117814 221.033926 129.140451 221.126709 129.694647 221.154355 129.7816 221.209281 129.860813 221.914895 130.069608 221.971645 130.196685 221.963184 130.230056 221.990027 130.237869 222.433893 130.230567 222.58762 130.219979 222.600823 130.147469 222.698216 129.417615 222.728853 129.154332 222.736293 128.734508 222.733375 128.702087 222.712659 128.573213 222.652773 128.313471 222.634245 128.247461 222.560288 127.991531 222.511927 127.825322 222.55883 127.805387 222.749036 128.574191 222.788425 128.825294 222.794261 129.015242 222.791343 129.088796 222.787696 129.166088 222.784778 129.211799 222.78186 129.22801 222.772086 129.250646 222.788717 129.725382 222.782152 129.755101 223.158728 130.243163 224.308726 130.758841 224.461528 130.823975 224.630004 130.88356 224.877792 130.957267 224.94096 130.973624 225.296806 131.058926 225.469185 131.097335 225.542478 131.112742 226.008621 131.181966 226.455368 131.261682 226.842039 131.336287 227.324885 131.54203 227.706319 131.67668 227.978448 131.724654 228.144824 131.736264 228.934381 131.856938 229.449068 131.95729 230.002487 131.984016 230.153836 131.978174 230.39174 132.030895 230.915989 132.169692 231.243168 132.317223 231.378361 132.482454 231.575971 132.684801 231.947375 132.638871 232.207293 132.621638 232.21167 132.623829 232.39615 132.677499 232.565371 132.760874 232.602426 132.794317 233.203892 132.987069 233.725625 133.226679 234.081944 133.401994 234.313232 133.537009 234.870167 133.862607 236.500277 134.825062 236.573074 134.878294 238.054205 135.675575 240.345091 136.574524 240.525903 136.599132 240.718968 136.595481 240.808506 136.581315 240.902449 136.554516 240.941109 136.527352 241.410578 136.601841 242.916444 137.011844 243.930447 137.409944 244.454981 137.897137 244.58948 138.350806 244.601881 138.379065 244.615084 138.398562 244.630037 138.418131 244.639884 138.429376 244.660016 138.453473 244.675772 138.471655 244.735075 138.539564 244.819156 138.606889 244.851543 138.632008 244.896987 138.666912 248.360053 140.857148 248.452027 140.915126 248.928068 141.146054 249.179985 141.254643 249.230899 141.254862 249.337542 141.2055 250.170435 141.338696 251.012227 141.634963 251.239517 141.732547 251.569607 141.917457 252.485473 142.008404 256.326166 142.808811 257.980449 143.214009 257.799382 143.729089 257.771956 143.791302 257.618805 143.957074 257.687225 144.018557 257.724499 144.046232 257.759147 144.065509 257.970106 144.105597 257.986591 144.108518 259.371918 144.031941 259.383443 144.022084 259.396792 144.006238 259.396741 143.995139 259.394552 143.963302 259.389446 143.908683 259.405494 143.893203 259.565888 143.86122 259.62789 143.86414 259.850323 143.887507 260.330478 144.016928 260.975615 144.219721 262.059367 144.629381 262.160605 144.667497 262.326886 144.740985 262.493553 144.848399 262.916886 145.175019 262.953941 145.220073 263.009523 145.300783 263.025498 145.325756 263.036075 145.386071 263.030239 145.440252 263.014046 145.466466 262.979981 145.494725 262.93979 145.511812 262.907257 145.535471 262.892814 145.561539 262.870421 145.738803 263.741047 146.066972 264.123553 146.133202 263.582083 148.084697 263.577706 148.109159 263.574788 148.123763 263.566764 148.163778 263.550644 148.355545 263.548456 148.450106 263.569828 148.50458 263.62687 148.560075 263.674939 148.649 263.71535 148.765621 263.731981 148.871654 263.747736 148.980542 263.755031 149.02472 263.757219 149.041587 263.762325 149.112344 263.747736 149.361264 263.709076 149.827025 263.642625 150.042501 263.615636 150.100699 262.96122 151.29419 262.615893 151.801697 261.703171 153.150905 260.632717 154.996089 259.911186 156.561773 260.184343 158.173957 260.211187 158.287621 260.245397 158.341291 260.657263 158.818947 259.825033 161.614779 259.75654 161.831204 259.757999 161.831935 259.219402 163.593189 258.91884 163.700055 258.845787 163.698595 256.907515 163.548311 255.79064 163.385439 254.493865 163.876925 254.204434 164.52518 254.152645 164.612848 254.049685 164.705124 253.972818 164.736377 253.436263 163.830886 252.998678 163.022994 252.638157 161.760959 251.843223 160.143605 250.90263 159.431735 250.53604 159.392596 249.607672 159.204963 248.008023 157.832922 248.035668 157.758521 248.098618 157.60585 248.136694 157.515312 247.884559 156.816856 247.827737 156.742266 247.744224 156.672385 247.632096 156.635802 246.582409 156.341054 246.498277 156.32331 246.492441 156.430782 246.443934 156.539458 246.401627 156.595684 246.34371 156.650011 246.284918 156.690903 245.072561 157.214022 241.996894 157.089989 241.585218 156.880756 241.570338 156.809196 241.348051 155.902668 240.959717 155.72915 240.43282 155.586475 239.861515 155.933337 239.758228 156.097954 239.59795 156.600927 239.028221 158.78887 236.524319 161.055171 236.059985 161.646703 235.933093 161.903334 235.8983 162.01499 235.727569 162.787927 235.66316 163.111568 235.618227 163.437999 234.714302 163.172109 232.683093 162.562286 233.00324 163.673505 233.038034 163.818691 233.14122 164.690476 233.057262 164.894707 232.875116 165.299226 232.678841 165.686549 232.595168 165.788573 233.409796 167.63037 234.230274 168.288424 234.753451 168.78186 235.118465 169.146086 235.12576 169.153388 234.631826 171.048753 234.581933 171.222395 234.505685 171.398915 234.432888 171.544839 234.402763 171.591572 234.320009 171.719373 234.114039 172.023723 233.858082 172.324969 231.59948 174.945544 230.982871 175.469875 230.874733 175.554783 230.809011 175.712252 230.722136 175.976338 230.428598 176.867948 230.409998 176.924904 230.343109 177.128478 229.993362 178.196505 229.926035 178.643252 229.676293 179.175754 228.150287 180.998784 227.772821 182.721747 227.707683 182.836272 227.020669 183.905899 226.370105 184.858284 226.077618 185.28771 224.209108 188.474435 223.091934 190.699487 222.980222 190.995396 222.72813 191.885129 222.761101 192.031235 223.152652 192.450629 223.435736 192.720965 223.503282 192.752583 223.54092 192.906343 223.531365 193.072384 223.475053 193.683485 223.44573 193.812396 223.328561 193.924015 223.172638 194.047113 222.978909 194.161551 222.81769 194.246539 222.142762 194.858196 222.063079 194.947967 221.591079 195.913598 223.743279 197.751407 223.267552 200.368215 222.908912 202.33887 222.231235 206.353531 222.175871 207.106833 221.709998 207.435192 221.387802 207.710099 219.56885 209.327241 219.448034 209.43894 219.42812 209.457415 219.345629 209.533495 219.258163 209.626034 218.358483 210.85115 218.257151 210.992423 216.155253 214.291658 216.058144 214.470259 215.986003 214.64017 215.913643 214.813002 215.605189 215.636221 215.398089 216.212002 215.042958 217.243366"></polygon>
                <path d="M479.893712,326.139462 L480.414759,327.508597 L481.0009,327.508567 L481.293985,326.5632 L484.127036,326.5632 L485.52728,327.475956 L489.272133,327.443389 L492.105184,328.551739 L492.268007,328.942924 L492.951848,329.008131 L493.53799,327.573789 L495.035934,327.117411 L496.924634,327.638997 L497.836422,328.45395 L498.976158,329.46451 L499.562314,330.833644 C499.562314,330.833644 499.887946,332.561325 499.725137,332.528757 C499.562314,332.496117 500.864872,333.995681 500.864872,333.995681 L501.483576,333.441514 L501.972032,332.398357 L503.209467,332.202779 L503.828185,333.148132 L504.609711,332.854736 L505.326114,333.897892 C505.326114,333.897892 505.293582,334.843274 505.163291,334.875841 C505.033043,334.908409 504.023555,334.71286 504.023555,334.71286 L502.525626,333.897892 L502.525626,335.136627 L503.763046,336.016787 L505.678604,337.368324 L508.165423,339.949993 L508.718054,340.964219 L506.875965,341.886249 L506.691754,344.375709 L507.612792,346.865168 L509.362783,348.89362 L510.560144,350.368853 L512.862752,350.64547 L514.704842,352.305109 L515.349571,354.425757 L517.283773,355.90099 L519.770592,356.546419 L521.520583,358.021652 L522.717944,361.525337 L524.191613,361.894149 L525.204763,364.107007 L525.204763,366.965278 L524.652131,367.887294 L524.007402,368.717128 L523.638981,370.468964 L521.796892,371.944197 L519.954802,372.405219 L518.941652,374.064859 L519.310073,375.355687 L520.139013,375.355687 L521.428471,374.525867 L523.178463,374.894679 L524.744244,375.079085 L526.586333,378.490574 L527.507371,380.426816 L527.415273,384.575915 L526.033702,385.774546 L524.560033,385.405749 L523.823192,385.958952 L524.652131,387.618592 L526.678431,391.491104 L529.441573,393.427345 L532.2047,398.406279 L533.770481,400.34252 L536.533623,401.448941 L538.652021,403.661799 L543.257252,406.612281 L546.112492,408.179725 L548.691409,409.93156 C548.691409,409.93156 552.559798,412.974237 552.099279,412.697636 C551.638761,412.421019 555.230842,413.527455 555.230842,413.527455 L557.165029,414.449471 L559.467638,415.279291 L562.507088,417.031141 L569.322829,416.938945 L573.467527,416.201321 L575.678038,417.768765 L578.8096,419.151803 L579.730638,420.44263 L583.230607,421.641262 L583.599027,422.839894 L584.335869,423.577503 L584.814521,423.902196 L585.889133,424 L587.61501,423.608814 L588.005781,423.217629 L588.819869,422.924247 L588.982692,423.25024 L589.471148,423.348029 L590.285251,423.282822 L591.034216,421.913687 L591.783181,420.022981 L592.14139,419.110225 L593.378811,418.458254 L593.346278,416.665337 L592.467051,415.654791 L592.108857,415.00282 L591.522701,414.25306 L591.783181,412.329758 L592.792669,411.645191 L592.53216,406.853219 C592.53216,406.853219 593.378811,406.331634 593.346249,406.136056 C593.313716,405.940463 593.313716,403.039197 593.313716,403.039197 L592.336775,401.604869 L591.750619,400.952898 L591.034216,399.877146 L590.741146,398.508011 L591.131916,397.790847 L591.58781,393.259661 L592.076266,389.021871 L592.369337,388.663282 L592.304199,388.402497 L591.913443,387.620126 L591.978581,386.218394 L592.206528,385.273042 L592.922931,382.958554 L593.47651,380.252881 L594.258052,378.753361 L595.039578,378.296982 L596.407261,377.7428 L596.211875,372.85304 L597.188802,372.103265 L599.305449,370.473345 L601.096464,369.071614 L601.747743,368.387046 L602.105938,362.812718 L603.082864,360.59602 L604.385409,357.72735 L605.036688,357.466565 L606.143862,355.999641 L607.05565,354.663102 L608,354.369721 L607.869753,353.782942 L607.185912,352.413808 L605.981038,351.761837 L605.883353,350.783887 L605.883353,348.925778 L607.153335,348.632396 L606.697441,348.110811 L606.046176,346.578694 L605.264635,345.60073 L604.711056,345.079159 L602.887479,345.176948 L602.561832,346.057108 L601.943129,346.024541 L602.171076,344.850999 L602.073376,343.677457 L600.445185,342.634301 L599.59852,341.525952 L598.686732,338.983275 L597.840081,337.320758 L596.374699,336.440598 L596.244452,334.908467 L595.690858,334.2239 L595.560611,332.789572 L596.439822,331.876816 L596.179314,329.823113 L594.779069,328.779942 L594.225475,327.378197 L593.18344,326.302458 L592.694969,324.868116 L592.108828,323.629382 L591.652934,322.358036 L590.513198,320.891112 L589.959604,320.46733 C589.959604,320.46733 589.666534,318.185439 589.536287,318.055053 C589.406025,317.924653 588.494236,317.109686 588.494236,317.109686 L587.908081,315.675359 L586.540398,315.21898 L584.065557,314.762602 L583.056068,313.915038 L581.232492,312.285118 L579.636862,310.590005 L578.26918,308.438499 C578.26918,308.438499 576.706112,307.232361 576.543303,307.167168 C576.380479,307.101961 574.394079,305.309059 574.394079,305.309059 L573.482291,303.874717 L572.342556,302.96196 L571.105135,302.147007 L569.932838,301.918818 L568.532579,301.46244 L567.816176,300.549684 L566.67644,299.539123 L566.448493,298.82196 L565.764652,297.289843 L565.373896,296.507472 L563.550319,295.236141 L561.694166,294.45377 L560.391622,292.986846 L558.535484,291.585115 L556.907278,289.987791 L556.028066,289.20542 L555.083701,288.097071 L554.334736,286.467151 L553.422948,286.271558 L553.032177,285.81518 L550.687583,285.652198 L549.775795,284.250452 L548.961706,283.142117 L546.356589,282.587935 L544.435327,282.392343 L543.165329,281.707775 L542.155856,280.273452 L539.778685,280.208245 L537.206144,279.034703 L535.089496,278.415328 L534.014884,277.372179 L532.777464,276.687612 L531.57259,275.546666 L530.693364,275.057691 L529.586205,274.503517 L528.902363,275.122891 L528.902363,276.329037 L527.957999,278.15455 L527.860313,280.045263 L526.166998,280.664633 L525.092387,281.707775 L524.734178,282.718335 L525.450581,283.891877 L527.078787,284.869827 L527.990575,285.521798 L527.339296,286.793143 L525.385457,286.825711 L524.929563,285.521769 L523.854951,283.565855 L522.32446,283.30507 L521.966251,282.196721 L521.868566,280.92539 L520.696268,280.860182 L520.175236,281.512139 L519.328586,282.490103 L518.253974,283.272459 L517.928327,284.348212 L519.849604,284.771994 L519.947289,286.010729 L518.579607,286.630103 L517.830642,286.825696 L517.114239,286.532299 L516.300136,285.815136 L515.81168,285.423965 L514.443997,285.489172 L513.792718,286.662714 L512.522735,288.129638 L511.057353,288.977202 C511.057353,288.977202 507.4102,289.368387 507.214814,289.466176 C507.019444,289.56398 506.335602,290.541929 506.335602,290.541929 L506.009955,291.911064 L505.033043,295.170904 L504.512026,295.529494 L502.98152,296.279254 L499.627437,296.931225 L497.738737,297.289814 L496.599002,298.691545 L494.612601,298.95233 L493.505428,299.636898 L491.877236,300.68004 L490.021098,302.016578 L487.839313,302.961931 L486.504206,304.983037 L485.494718,306.286979 L484.387545,307.297524 L484.615492,308.308085 L484.322421,311.241947 L485.136524,312.350296 L485.071386,313.882413 L484.094459,314.762573 L484.029321,318.152813 L482.759339,318.837381 L481.84755,319.587141 L482.303444,320.793294 L483.801374,322.423214 L483.736236,323.531563 L481.717289,323.694545 L480.935747,323.531563 L480.219344,324.053134 L479.893712,326.139433 L479.893712,326.139462 Z" id="Lecce-path"></path>
                <path d="M402.361725,239.187281 L403.010437,238.775621 L403.531455,237.993257 L403.922225,236.884908 L405.159646,236.624122 L406.852976,236.102544 L407.829888,236.102544 L410.304744,235.972151 L411.08627,234.668216 L409.653464,233.559867 L409.19757,232.451518 L409.718588,230.886798 L411.021147,229.713248 L411.672426,228.604906 L410.760638,228.278921 L408.806799,227.887735 L406.136558,228.083328 L405.420155,228.735299 L404.508367,228.344114 L403.075561,227.366164 L402.163772,226.518601 L401.382246,225.279859 L399.884302,224.82348 L399.113658,224.766232 L396.64986,224.259119 L394.715658,223.682856 L393.011723,223.08354 L393.195933,222.18457 L393.932775,221.377795 L394.209083,220.317472 L395.567633,219.234095 L396.396573,217.620554 L397.616954,215.661253 L398.307739,214.600929 L399.366946,213.310094 L399.297868,212.480274 L398.745237,211.857906 L399.159714,211.304695 L400.932727,209.898605 C400.932727,209.898605 402.314298,208.76913 402.72876,208.331168 C403.143237,207.893205 403.972177,207.155589 403.972177,207.155589 L405.445846,205.956957 L406.171104,205.009202 L407.813607,205.965289 L409.686041,207.578911 L412.584214,209.991195 L416.605857,211.963406 L418.934171,213.088053 L420.008783,214.685377 L421.962607,217.113959 L424.38862,218.14081 L427.335651,219.493647 L428.719614,219.933727 L431.389856,220.927974 L433.034328,221.612542 L435.004447,222.460105 L436.001521,223.360149 L436.600208,223.636758 L437.014671,223.08354 L437.567302,222.576427 L439.087027,222.530351 L439.962023,223.314066 L441.251481,224.05169 L444.797506,224.558803 L447.330381,225.065916 L451.382981,225.803533 L455.251371,226.679458 C455.251371,226.679458 456.356619,227.002164 456.586885,227.094367 C456.817152,227.18657 457.784246,227.739781 457.784246,227.739781 L459.764489,229.030616 L462.435519,229.629932 L465.521025,231.012962 L466.764442,232.349895 L468.192054,233.271918 L469.481512,234.147843 L472.198598,235.254272 L473.672281,236.499001 L475.652525,236.637302 L476.066987,237.006114 L477.494615,237.05219 L478.277498,236.406769 L478.922227,236.959987 L478.691975,237.559303 L477.402502,237.789807 L477.126194,238.389123 L478.461708,239.172838 L479.935377,240.048763 L482.606421,240.463672 L483.343248,241.201289 L485.968235,241.4318 L487.718212,242.031116 L489.882667,242.26162 L491.264238,241.985011 L496.191833,241.985011 L498.494442,241.754507 L499.553648,240.648078 L500.612854,241.109086 L500.751008,241.84671 L501.533892,243.506357 L502.777308,244.474485 L503.928613,244.704989 L506.093067,244.751065 L507.750946,244.797141 L508.39569,243.829013 L509.731204,243.967321 L509.961456,244.243923 L509.869358,244.612735 L508.257521,245.073743 L506.599642,245.304254 L504.711496,245.534758 L504.066767,246.456781 L503.560192,247.747615 L502.593098,248.393029 L500.520742,249.130646 L499.507592,249.729962 L499.323381,250.836391 L500.428644,250.790315 L501.948369,249.960488 L503.974669,248.900164 L504.573342,248.25475 L505.448338,248.439156 L507.566735,248.39308 L507.981213,249.038494 L508.856208,249.2229 L509.823302,248.439185 L510.191723,246.825644 L511.711448,247.701561 L513.13906,248.854095 L513.875902,249.730013 L513.968,251.205254 L514.428533,253.095397 L516.270623,254.294029 L517.514025,255.630962 L518.481133,256.276383 L519.632438,257.290609 L520.139013,257.98212 L519.494283,258.996346 L518.711386,260.241083 L518.066656,261.531911 L517.836404,262.961046 L517.974558,264.666791 L519.678494,266.095927 L521.014008,267.525063 L522.533733,267.847769 L523.731094,268.447085 L525.573183,269.507416 L526.1258,270.613845 L526.494221,272.22738 L527.875792,273.426011 L528.934998,273.887026 L529.603098,274.489161 L528.902334,275.122884 L528.902334,276.32903 L527.957984,278.154543 L527.860299,280.045256 L526.166969,280.664619 L525.092357,281.707775 L524.734163,282.718321 L525.450566,283.891863 L527.078757,284.869827 L527.990546,285.521798 L527.339266,286.793129 L525.385443,286.825696 L524.929548,285.521769 L523.854937,283.565855 L522.324431,283.30507 L521.966236,282.196721 L521.868536,280.925375 L520.696239,280.860168 L520.175222,281.512139 L519.328557,282.490088 L518.253945,283.272459 L517.928313,284.348197 L519.849575,284.771979 L519.947274,286.010729 L518.579592,286.630089 L517.830627,286.825681 L517.11421,286.532299 L516.300121,285.815136 L515.811665,285.42395 L514.443983,285.489158 L513.792703,286.662714 L512.522706,288.129638 L511.057338,288.977202 C511.057338,288.977202 507.410185,289.368373 507.2148,289.466176 C507.019414,289.563965 506.335573,290.541929 506.335573,290.541929 L506.009941,291.911064 L505.033014,295.170904 L504.511997,295.529479 L502.981491,296.279254 L499.627423,296.931225 L497.738708,297.289799 L496.598972,298.69153 L494.612587,298.952316 L493.505413,299.636883 L491.877222,300.68004 L490.021083,302.016578 L487.839298,302.961931 L486.504177,304.983037 L485.494704,306.286979 L484.36661,307.363564 L483.895879,307.356262 L483.112996,306.203735 L482.376154,306.203735 L481.593271,306.756939 L481.132737,307.494563 L480.764331,307.771165 L479.566971,305.973224 L479.19855,305.051194 L477.724881,304.728487 L475.698581,305.558307 L474.501221,306.203735 L472.889383,306.849149 L471.415715,306.06542 L470.448621,304.083074 L469.89599,303.345464 L467.455212,303.299388 L466.349965,302.653974 L465.567081,301.501433 L464.738142,299.841793 L464.231567,297.53674 L463.909202,296.199807 L462.80394,296.245883 L462.665785,297.121794 L460.96185,297.39841 L460.13291,296.706891 L459.11976,296.338079 L457.001362,295.600455 L456.08031,293.802515 L454.468487,292.92659 L453.961912,293.157101 L453.8698,293.940815 L452.810594,294.678439 L452.304019,294.125221 L452.165864,293.433702 L450.554042,293.0188 L449.771144,293.387612 L449.034317,294.033026 L448.159321,294.908951 L446.869862,295.323853 L448.98826,297.075703 L449.356681,297.767222 L448.665896,299.288561 L445.580389,299.334637 L444.567239,299.749539 L443.7383,299.657344 L443.508048,298.965825 L442.218575,298.689223 L441.804112,299.426832 L441.712,300.072246 L440.284387,299.05802 L438.810704,297.536682 L437.521246,295.830952 L437.337035,294.217403 L436.508096,292.649959 L435.725212,291.912349 L432.179187,291.405236 L430.75156,290.160499 L430.106831,288.270348 L429.416046,287.348333 L428.218685,285.08937 L426.69896,282.646016 L425.870021,280.571459 L424.48845,278.220298 L422.922683,276.237951 L423.245048,274.76271 L423.4753,272.872567 L424.258198,269.875987 L425.639769,268.677363 L426.192385,267.248227 L426.606862,265.081467 L425.870021,263.744535 L424.995025,263.006918 L422.738473,262.592008 L420.574019,262.084895 L418.547719,260.747962 L417.58061,259.134421 L416.889839,255.492427 L416.245096,252.772457 L415.324058,251.066712 L416.613516,250.098591 L417.304302,248.807756 L416.751671,248.208441 L415.04775,248.807756 L414.356964,248.254546 L412.606973,247.194215 L411.271458,245.903387 L411.593823,244.059334 L410.580673,241.846484 L406.850437,240.878356 L404.547829,240.325145 L402.361725,239.187047 L402.361725,239.187281 Z" id="path4409"></path>
                <path d="M402.39719,239.327283 L404.547829,240.325379 L406.850437,240.87859 L410.580673,241.846718 L411.593823,244.059568 L411.271458,245.903621 L412.606973,247.194448 L414.356964,248.254779 L415.04775,248.80799 L416.751671,248.208674 L417.304302,248.80799 L416.613516,250.098825 L415.324058,251.066946 L416.245096,252.77269 L416.889839,255.492661 L417.58061,259.134654 L418.547719,260.748196 L420.574019,262.085129 L422.738473,262.592242 L424.995025,263.007152 L425.870021,263.744768 L426.606862,265.081701 L426.192385,267.248461 L425.639769,268.677597 L424.258198,269.876221 L423.4753,272.872801 L423.245048,274.762944 L422.922683,276.238185 L424.48845,278.220531 L425.870021,280.571693 L426.69896,282.64625 L428.218685,285.089604 L429.416046,287.348567 L430.106831,288.270582 L430.75156,290.160733 L432.179187,291.40547 L435.725212,291.912583 L436.508096,292.650192 L437.337035,294.217636 L437.521246,295.831185 L438.810704,297.536915 L440.284387,299.058254 L441.712,300.07248 L441.804112,299.427066 L442.218575,298.689457 L443.508048,298.966058 L443.7383,299.657577 L444.567239,299.749773 L445.580389,299.33487 L448.665896,299.288794 L449.356681,297.767456 L448.98826,297.075937 L446.869862,295.324087 L448.159321,294.909184 L449.034317,294.033259 L449.771144,293.387846 L450.554042,293.019034 L452.165864,293.433936 L452.304019,294.125455 L452.810594,294.678673 L453.8698,293.941049 L453.961912,293.157334 L454.468487,292.926823 L456.08031,293.802748 L457.001362,295.600689 L459.11976,296.338313 L460.13291,296.707125 L460.96185,297.398644 L462.665785,297.122027 L462.80394,296.246117 L463.909202,296.200041 L464.231567,297.536974 L464.738142,299.842027 L465.567081,301.501667 L466.349965,302.654208 L467.455212,303.299622 L469.89599,303.345698 L470.448621,304.083307 L471.415715,306.065654 L472.889383,306.849383 L474.501221,306.203969 L475.698581,305.558541 L477.724881,304.728721 L479.19855,305.051428 L479.566971,305.973458 L480.764331,307.771398 L481.132737,307.494797 L481.593271,306.757173 L482.376154,306.203969 L483.112996,306.203969 L483.895879,307.356496 L484.311669,307.447509 L484.615492,308.308085 L484.322421,311.241947 L485.136524,312.350296 L485.071386,313.882413 L484.094459,314.762573 L484.029321,318.152813 L482.759339,318.837381 L481.84755,319.587141 L482.303444,320.793294 L483.801374,322.423214 L483.736236,323.531563 L481.717289,323.694545 L480.935747,323.531563 L480.219344,324.053134 L479.893712,326.139433 L479.893741,326.139462 L480.40478,327.524486 L479.525758,326.576285 L478.819129,326.599068 L477.747771,327.101084 L477.132321,327.694375 L476.266122,327.671593 L475.582281,326.142719 L474.533724,325.937356 L472.36822,325.84608 L469.701246,325.84608 L467.216616,325.982994 L464.226957,326.672862 L461.744733,327.124655 L456.264521,327.834604 L454.072436,328.835 L449.430368,329.254517 L446.238934,330.125842 L442.983047,330.964877 L439.372541,331.126238 L437.212697,330.125842 L436.82585,328.254136 L435.471925,327.899154 L432.538388,327.124655 L430.314062,326.608312 L428.669999,325.898363 L428.025269,324.607521 L425.575287,324.284814 L424.15688,324.446174 L423.737807,324.801156 L421.997021,325.091588 L419.966126,324.897967 L419.289156,323.929846 L417.000363,322.993986 L415.872079,321.83223 L411.455669,320.799574 L411.068822,319.766903 L409.392518,318.927868 L408.489891,319.31511 L407.909644,320.025074 L407.007017,320.347781 L404.75045,319.702367 L404.428086,318.669696 L403.912305,317.57249 L403.267576,316.862526 L400.237331,316.668905 L399.592602,316.281663 L397.980765,314.603578 L396.497891,314.087235 L394.370273,313.764528 L393.338697,313.054579 L391.791341,312.409165 L390.953196,311.699201 L389.760198,311.470165 L388.871212,311.401745 L387.731476,311.858123 L386.660121,312.177588 L386.021869,311.698384 L385.725538,310.580264 L385.725538,309.781595 L387.229988,308.366822 L388.164568,307.385616 L388.734443,307.499704 L389.372695,307.796357 L389.988145,308.047358 L390.55802,307.956082 L391.424219,307.590979 L392.290418,306.450034 L392.609544,305.719828 L393.019848,304.715796 L393.179404,303.437937 C393.179404,303.437937 393.179404,302.570819 393.156646,302.433905 C393.133888,302.296992 392.951501,300.973495 392.951501,300.973495 L392.290447,299.239257 L391.515427,298.007036 L390.330102,297.231193 L388.460907,296.364045 C388.460907,296.364045 387.640297,296.27277 387.457935,296.27277 C387.275578,296.27277 385.224054,296.227132 385.224054,296.227132 L384.996107,296.637872 L384.494623,297.231164 L383.582835,297.276802 L382.671047,297.185526 L382.169563,296.318407 L381.987205,295.816391 L381.576901,294.766721 L381.121007,294.310343 L380.026861,294.082154 L379.023893,293.169397 L378.613589,292.758657 L378.157695,292.256641 L377.428264,292.667381 L376.881191,293.260673 L376.014992,293.853965 L374.647309,294.264705 L374.328184,293.853965 L374.464952,292.986846 L375.194382,292.530468 L375.559098,291.708987 L375.559098,290.841868 L374.920846,290.38549 L373.872289,290.066025 L372.778143,289.746561 L370.270726,289.746561 L368.822777,289.609822 L366.840228,289.56141 L365.502408,289.787306 L364.309658,290.416597 L363.423151,290.465009 L361.585665,291.384717 L359.200156,291.675164 L356.524525,293.062802 L355.235059,293.998662 L352.156468,295.983316 L350.689699,297.225746 L348.932807,298.145454 L347.433805,299.694453 L346.224935,300.872347 L344.80652,301.856605 L343.581536,303.502414 L341.679575,304.777104 L340.599653,306.14862 L338.407561,309.424101 L336.505599,311.005375 L335.989819,312.134856 L335.6191,313.377286 L334.958243,314.103373 L334.071737,315.039233 L333.749373,315.684647 L332.733925,316.910939 L332.266491,318.459938 L331.267157,318.459938 L329.752042,318.379265 L329.268487,317.120697 L328.801061,315.958941 L327.85008,315.281267 L327.366533,315.781457 L327.269818,316.330061 L325.932006,316.330061 L325.126087,315.087631 L323.562611,313.877476 L323.353075,312.941631 L322.998477,312.360753 L322.176437,311.602391 L321.934668,311.102186 L321.821839,309.020721 L321.032041,307.794429 L319.968232,306.471326 L318.759361,305.890448 L318.324168,305.422533 L317.228126,305.27731 L316.986349,305.922723 L315.535701,306.003396 L313.359736,305.890448 L313.117959,305.325708 L312.279807,304.567346 L311.973563,304.90619 L311.53837,305.84205 L310.958108,306.067946 L309.910419,306.035671 L308.814377,304.986863 L307.589385,304.147828 L306.880182,303.631485 L306.557817,302.405193 L307.138072,301.75978 L307.976224,300.727109 L308.943325,300.081695 L309.459106,299.17811 L309.78147,298.209989 L309.716989,297.241869 L308.749888,296.531905 L308.298574,295.821955 L306.815693,295.628334 L305.97754,295.434698 L305.655176,294.853835 L305.074921,293.885699 L305.074921,292.788493 L306.042015,292.465786 L306.557803,292.272165 L306.751218,291.626751 L306.751218,290.916787 L305.848599,290.142288 L304.430185,289.62596 L303.463091,289.303253 L302.75388,288.722375 L302.818362,287.81879 L303.205201,286.269791 L303.463098,285.624377 L303.785463,284.527171 L304.365718,283.300879 L304.881505,282.397293 L304.881505,281.300087 L304.043353,280.91283 L303.463098,280.331964 L302.882836,279.815628 L303.269675,279.105672 L304.430192,278.718422 L305.590709,278.395715 L306.235445,277.685751 L306.235445,276.911252 L305.20387,276.459466 L303.849937,275.814045 L302.68942,275.104089 L302.547641,274.184052 L302.502051,272.814917 L302.114541,271.445783 L301.977773,269.141072 L302.661614,267.7263 L303.117509,266.494079 L303.710171,265.193401 L303.778519,261.930296 L303.960876,260.287334 L303.391009,258.667192 L302.296863,257.982624 L300.92918,257.617522 L299.607087,256.887316 L299.151193,255.563819 L300.518875,254.651063 L301.74979,254.651063 L302.205706,253.515828 L303.892536,253.55577 L305.351397,253.327581 L306.71908,252.779927 L307.722047,251.410792 L308.542656,250.589311 L310.138286,250.132933 L311.460379,248.946349 L312.007452,247.896679 L313.557492,248.626885 L313.831029,250.498035 L314.150154,252.734289 L314.742817,253.601408 L315.563426,255.153094 L316.06491,256.522228 L317.159056,257.161158 L317.934076,257.434985 L318.800275,256.887331 L319.347348,256.476591 L318.937043,255.472558 L319.484116,253.510132 L320.304726,252.962478 L321.49005,252.140997 L322.219481,250.863138 L323.587164,249.265814 L325.638687,249.265814 L326.18576,250.132933 L326.18576,251.593343 L326.596065,252.232273 L327.371085,252.186635 L327.918158,251.410792 L328.55641,250.8175 L329.969682,250.908776 L331.109417,251.273879 L331.65649,252.277911 L332.4771,252.779927 L333.844782,252.779927 L334.300676,252.186635 L335.212465,251.593343 L336.534558,251.45643 L336.534558,250.543673 L335.850716,250.315484 L335.212465,248.672522 L334.437445,247.622853 L334.756571,245.432237 L336.762505,244.10874 L342.050877,244.063102 L343.37297,243.46981 L344.467116,242.191951 L347.020123,240.914092 L348.296627,239.727509 L349.709899,239.088579 L350.667277,239.681871 L350.621687,241.735573 L349.937846,242.511416 L348.8437,244.245653 L347.384839,245.204048 L347.339249,245.888615 L349.573131,247.394663 L350.576098,248.444333 L351.624654,249.037625 L353.174695,248.900712 L353.812946,248.444333 L355.226218,247.577215 L356.730669,247.029561 L358.918961,246.755734 L361.289611,246.847009 L361.471968,248.535609 L362.657293,248.489971 L363.569081,248.30742 L364.708817,247.212112 L366.03091,247.394663 L366.441215,248.581247 L367.079466,249.265814 L369.358937,249.265814 L370.179547,248.809436 L371.866355,248.033593 L372.641375,247.212112 L372.595786,246.253718 L371.592819,245.386599 L372.048713,244.200016 L372.459018,240.503352 L374.054647,239.408044 L377.473853,236.943601 L379.25184,235.757018 L380.026861,236.897964 L383.94755,236.532861 L386.454968,234.889899 L387.321167,233.429489 L385.588769,229.139533 L385.54318,227.085831 L389.372695,227.085831 L392.472775,227.405296 L393.794869,228.820069 L395.390498,228.044226 L393.794869,226.583815 L394.022816,225.899248 C394.022816,225.899248 395.983161,227.359658 396.02875,227.587847 C396.074339,227.816036 396.849359,229.824101 396.849359,229.824101 L394.752246,230.234841 L391.606577,230.326117 L390.785967,231.649614 L394.296352,231.740889 L394.250763,232.653646 L393.065438,232.973111 L392.746312,233.840229 L394.031788,235.152832 L395.12783,236.572752 L395.998216,238.702622 L397.078153,238.734897 L398.061367,237.847449 L399.914967,237.621553 L400.462988,238.525131 L402.39719,239.327291 L402.39719,239.327283 Z" id="path3664-path"></path>
            </g>
        </g>
    </g>
</svg>