<?xml version="1.0" encoding="UTF-8"?>
<svg width="135px" height="154px" viewBox="0 0 135 154" version="1.1" xmlns="http://www.w3.org/2000/svg" xmlns:xlink="http://www.w3.org/1999/xlink">
    <title>Arrow</title>
    <g id="Page-1" stroke="none" stroke-width="1" fill="none" fill-rule="evenodd">
        <g id="Desktop-HD" transform="translate(-129.000000, -191.000000)" fill="#000000">
            <g id="Content" transform="translate(96.000000, 132.000000)">
                <g id="Arrow" transform="translate(100.000000, 136.000000) rotate(20.000000) translate(-100.000000, -136.000000) translate(52.000000, 72.000000)">
                    <path d="M90.0811721,5.3526181 C85.4090684,6.2870394 80.7710885,7.00217676 76.2238077,7.7033289 C72.9636118,8.20602309 69.750036,8.70152818 66.603934,9.26550411 C58.9874158,10.630856 51.5162975,12.430957 43.9451881,15.776331 C30.3925542,21.764705 18.1350449,30.6327671 10.0166396,43.1033069 C5.82909993,49.5357128 2.81113626,57.7637617 2.29782693,65.875568 C1.78507924,73.9784974 3.77124281,81.8763684 9.47034312,87.8179897 C12.3611249,90.831781 16.0349481,93.2976956 20.1340607,95.1400546 C19.0984343,91.0305038 18.6578343,86.6701949 18.961883,82.0486528 C19.6821205,71.1010598 28.617254,65.412111 38.1501215,64.4988342 C47.6455196,63.5891488 58.2915076,67.3365014 62.8940481,75.8224319 C65.3696357,80.3868056 65.5045381,84.9208559 63.8014466,88.8534636 C62.1113709,92.7560359 58.6644291,95.9497744 54.1780549,98.0070626 C46.9575452,101.318131 38.1055343,101.97847 29.736346,100.425278 C27.664122,100.040708 25.6142015,99.5190658 23.6191737,98.8648481 C27.6375212,109.676325 36.0009878,118.6418 45.4979755,126.012591 C45.9823595,126.388534 46.0702692,127.085961 45.6943323,127.570345 C45.3183926,128.054729 44.6209654,128.142639 44.1365842,127.766696 C34.0134181,119.909917 24.8712299,110.048258 20.925259,97.8867797 C15.9206015,95.8874166 11.3811225,93.017732 7.86790751,89.3550196 C1.62710091,82.8486431 -0.458687046,74.2772649 0.0818399455,65.7353405 C0.621805343,57.2022873 3.78234304,48.6098775 8.15579993,41.8918866 C16.5722259,28.9635621 29.2225251,19.8541755 43.047776,13.7453428 C50.8472117,10.2990814 58.5117392,8.46031395 66.2121465,7.07992409 C69.4919256,6.49198395 72.7351811,5.99292101 75.9944905,5.49138777 C80.469283,4.80281903 84.9743312,4.10959408 89.6457121,3.1753181 C90.246957,3.05506911 90.8318431,3.44499325 90.9520921,4.04623809 C91.0723411,4.64748293 90.682417,5.23236911 90.0811721,5.3526181 Z M30.1415024,98.2421396 C38.1600035,99.7302455 46.5311991,99.0708892 53.2525245,95.9887374 C57.3587098,94.1057891 60.3381911,91.2631584 61.763894,87.9710636 C63.1765867,84.7090099 63.1166287,80.8900952 60.9422255,76.8810465 C56.9004987,69.4291161 47.2938442,65.8534268 38.3618744,66.7091343 C29.4673768,67.561256 21.8004268,72.7261349 21.1775122,82.1944198 C20.8505967,87.1635404 21.4336095,91.8279926 22.7305184,96.2031132 C25.1119085,97.0869644 27.6030686,97.7710425 30.1415024,98.2421396 Z" id="Vector-4-(Stroke)"></path>
                    <path d="M85.341556,0.0189268434 C85.4044925,0.0306359614 85.4947024,0.047125112 85.6087491,0.0679713106 C86.4805137,0.22731851 88.7450549,0.6412469 90.8675141,1.12083229 C92.0618743,1.39070686 93.2487143,1.68956257 94.1281568,1.9843802 C94.5564927,2.12797242 94.9770761,2.29162409 95.2974356,2.47827541 C95.4483687,2.56621357 95.665059,2.70859359 95.8389485,2.92249981 C96.026444,3.1531425 96.2758901,3.62900583 96.0552795,4.19629115 C95.7413694,5.00348753 95.049361,5.57682094 94.4373533,5.98264186 C93.7992953,6.40573604 93.0464785,6.77346564 92.395483,7.08917746 L92.3423662,7.11493471 C91.6761123,7.43800046 91.1355781,7.70010456 90.7483535,7.95571624 C90.5944396,8.05731661 90.502621,8.1340844 90.4521815,8.18403968 C90.3690038,8.71491396 89.9096313,9.12102604 89.3554071,9.12102604 C88.7422551,9.12102604 88.2451975,8.62396843 88.2451975,8.01081648 C88.2451975,7.49006765 88.4783666,7.07884873 88.7172154,6.79350584 C88.9519967,6.5130217 89.2473468,6.28598291 89.525107,6.10262968 C90.0396066,5.76300182 90.7027512,5.441862 91.3050676,5.1501795 C91.3458723,5.13041917 91.3863981,5.11079401 91.4265794,5.09130719 C92.0995552,4.76493524 92.7168674,4.45926734 93.210263,4.13209778 C93.2491188,4.10633241 93.2861909,4.08107419 93.3215534,4.05633195 C92.559799,3.80817336 91.506988,3.5417235 90.3781312,3.28664986 C88.3068248,2.81862289 86.0950088,2.4141513 85.2136723,2.25298256 C85.096067,2.23147621 85.0021525,2.2143023 84.9354238,2.20188768 C84.3326158,2.08973738 83.9348592,1.51014905 84.0470095,0.907341103 C84.1591598,0.304533152 84.738748,-0.0932234586 85.341556,0.0189268434 Z M94.2042244,4.41191772 C94.2086607,4.41485371 94.2106413,4.41636423 94.210522,4.41638506 C94.2104027,4.41640588 94.2081856,4.41493841 94.2042244,4.41191772 Z" id="Vector-5-(Stroke)"></path>
                </g>
            </g>
        </g>
    </g>
</svg>